<svg width="160" height="160" viewBox="0 0 160 160" fill="none" xmlns="http://www.w3.org/2000/svg">
<g clip-path="url(#clip0)">
<path d="M155.786 77.9639C155.786 119.735 121.924 153.597 80.1526 153.597C38.3813 153.597 4.51904 119.735 4.51904 77.9639C4.51904 36.1926 38.3813 2.33034 80.1526 2.33034C121.924 2.33034 155.786 36.1926 155.786 77.9639Z" fill="#FF8B00"/>
<path d="M80.1526 2.33034V153.597C121.924 153.597 155.786 119.735 155.786 77.9639C155.786 36.1914 121.924 2.33034 80.1526 2.33034Z" fill="#ED500A"/>
<path d="M16.2646 37.4695C8.82813 49.1772 4.51904 63.0664 4.51904 77.9639C4.51904 119.735 38.3801 153.597 80.1526 153.597C107.061 153.597 130.684 139.543 144.091 118.378L16.2646 37.4695Z" fill="#727070"/>
<path d="M80.1721 77.9199L16.2646 37.4695C8.82812 49.1772 4.51904 63.0664 4.51904 77.9639C4.51904 93.4375 9.1687 107.823 17.1436 119.807L80.1721 77.9199Z" fill="#FFA300"/>
<path d="M16.2646 37.4695C8.82812 49.1772 4.51904 63.0664 4.51904 77.9639C4.51904 83.4314 5.10376 88.761 6.20605 93.8989L80.1868 77.9285L16.2646 37.4695Z" fill="#FFE3DC"/>
<path d="M16.2646 37.4695C8.82812 49.1772 4.51904 63.0664 4.51904 77.9639H80.2417L16.2646 37.4695Z" fill="#FFC50D"/>
<path d="M87.2949 2.66846C118.993 11.6772 142.208 40.8411 142.208 75.4272C142.208 112.563 115.443 143.446 80.1526 149.844V153.597C121.924 153.597 155.786 119.735 155.786 77.9639C155.786 38.6023 125.717 6.26831 87.2949 2.66846Z" fill="#DB3317"/>
<path d="M133.108 111.426C120.309 135.032 95.3137 151.062 66.5747 151.062C64.1638 151.062 61.7834 150.944 59.4312 150.724C66.0156 152.595 72.9663 153.597 80.1514 153.597C107.061 153.597 130.684 139.543 144.091 118.378L133.108 111.426Z" fill="#5C5C5C"/>
<path d="M87.4635 157.67H62.9884C61.4783 157.67 60.2552 156.447 60.2552 154.937V146.926H90.1966V154.937C90.1966 156.447 88.9722 157.67 87.4635 157.67Z" fill="#FFC50D"/>
<path d="M60.2539 136.183H90.1965V146.926H60.2539V136.183Z" fill="#FFC50D"/>
<path d="M60.2539 125.438H90.1965V136.183H60.2539V125.438Z" fill="#FFC50D"/>
<path d="M90.1965 125.438H60.2539V117.428C60.2539 115.918 61.4783 114.695 62.9883 114.695H87.4622C88.9722 114.695 90.1965 115.918 90.1965 117.428V125.438Z" fill="#FFC50D"/>
<path d="M82.0947 146.926V151.505C82.0947 153.062 80.8325 154.324 79.2761 154.324H60.2539V154.589C60.2539 156.29 61.6333 157.671 63.3362 157.671H87.1155C88.8171 157.671 90.1965 156.292 90.1965 154.589V146.926H82.0947Z" fill="#FFA300"/>
<path d="M82.0947 136.183V140.762C82.0947 142.318 80.8325 143.58 79.2761 143.58H60.2539V146.926H90.1965V136.183H82.0947Z" fill="#FFA300"/>
<path d="M82.0947 125.438V130.018C82.0947 131.575 80.8325 132.836 79.2761 132.836H60.2539V136.183H90.1965V125.439H82.0947V125.438Z" fill="#FFA300"/>
<path d="M147.346 157.67H122.871C121.361 157.67 120.138 156.447 120.138 154.937V146.926H150.079V154.937C150.079 156.447 148.856 157.67 147.346 157.67Z" fill="#FFC50D"/>
<path d="M120.138 136.183H150.079V146.926H120.138V136.183Z" fill="#FFC50D"/>
<path d="M141.978 146.926V151.505C141.978 153.062 140.717 154.324 139.159 154.324H120.138V154.589C120.138 156.29 121.517 157.671 123.219 157.671H146.998C148.7 157.671 150.079 156.292 150.079 154.589V146.926H141.978Z" fill="#FFA300"/>
<path d="M141.978 136.183V140.762C141.978 142.318 140.717 143.58 139.159 143.58H120.138V146.926H150.079V136.183H141.978Z" fill="#FFA300"/>
<path d="M87.1155 114.695H82.0947V119.275C82.0947 120.83 80.8325 122.092 79.2761 122.092H60.2539V125.439H90.1965V117.777C90.1965 116.074 88.8171 114.695 87.1155 114.695Z" fill="#FFA300"/>
<path d="M150.079 136.183H120.138V128.171C120.138 126.663 121.361 125.438 122.871 125.438H147.346C148.856 125.438 150.079 126.663 150.079 128.171V136.183Z" fill="#FFC50D"/>
<path d="M146.998 125.438H141.978V130.018C141.978 131.575 140.717 132.836 139.159 132.836H120.138V136.183H150.079V128.521C150.079 126.818 148.7 125.438 146.998 125.438Z" fill="#FFA300"/>
<path d="M117.405 157.67H92.9297C91.4197 157.67 90.1965 156.447 90.1965 154.937V146.926H120.138V154.937C120.138 156.447 118.914 157.67 117.405 157.67Z" fill="#FFC50D"/>
<path d="M90.1965 136.183H120.138V146.926H90.1965V136.183Z" fill="#FFC50D"/>
<path d="M90.1965 125.438H120.138V136.183H90.1965V125.438Z" fill="#FFC50D"/>
<path d="M112.036 146.926V151.505C112.036 153.062 110.774 154.324 109.218 154.324H90.1965V154.589C90.1965 156.29 91.5759 157.671 93.2776 157.671H117.057C118.759 157.671 120.138 156.292 120.138 154.589V146.926H112.036Z" fill="#FFA300"/>
<path d="M112.036 136.183V140.762C112.036 142.318 110.774 143.58 109.218 143.58H90.1965V146.926H120.138V136.183H112.036Z" fill="#FFA300"/>
<path d="M112.036 125.438V130.018C112.036 131.575 110.774 132.836 109.218 132.836H90.1965V136.183H120.138V125.439H112.036V125.438Z" fill="#FFA300"/>
<path d="M90.1965 114.695H120.138V125.438H90.1965V114.695Z" fill="#FFC50D"/>
<path d="M112.036 114.695V119.275C112.036 120.83 110.774 122.092 109.218 122.092H90.1965V125.439H120.138V114.695H112.036Z" fill="#FFA300"/>
<path d="M90.1965 103.951H120.138V114.695H90.1965V103.951Z" fill="#FFC50D"/>
<path d="M120.138 103.951H90.1965V95.9412C90.1965 94.4312 91.4197 93.2068 92.9297 93.2068H117.405C118.914 93.2068 120.138 94.4312 120.138 95.9412V103.951Z" fill="#FFC50D"/>
<path d="M112.036 103.951V108.53C112.036 110.087 110.774 111.349 109.218 111.349H90.1965V114.695H120.138V103.951H112.036Z" fill="#FFA300"/>
<path d="M117.057 93.2068H112.036V97.7869C112.036 99.3433 110.774 100.604 109.218 100.604H90.1965V103.951H120.138V96.2891C120.138 94.5874 118.759 93.2068 117.057 93.2068Z" fill="#FFA300"/>
<path d="M147.362 123.109H143.716C142.709 124.528 145.555 120.581 146.146 119.469C153.91 107.107 158.115 92.6648 158.115 77.9639C158.115 57.1387 150.006 37.561 135.281 22.8345C120.555 8.10913 100.978 0 80.1526 0C63.0957 0 46.8958 5.40771 33.3069 15.6384C32.2778 16.4124 32.0715 17.8723 32.8455 18.9014C33.6206 19.9292 35.0806 20.1355 36.1096 19.3616C48.2642 10.2112 62.6416 5.16846 77.8223 4.69971V73.6755L19.5044 36.7615C22.085 32.9797 25.0354 29.4104 28.3459 26.1035C29.2566 25.1941 29.2566 23.7183 28.3472 22.8076C27.4377 21.8982 25.9631 21.8958 25.0525 22.8064C11.9861 35.8582 4.12842 52.7295 2.50732 70.9033C2.12036 75.1746 2.08374 79.4836 2.40234 83.761C3.5083 98.9966 8.97217 113.336 18.3789 125.535C28.3545 138.47 42.3572 148.081 57.9248 152.71V154.952C57.9248 157.736 60.1892 160 62.9724 160H87.4793C88.479 160 89.4104 159.703 90.1965 159.199C90.9814 159.703 91.9128 160 92.9138 160H117.419C118.42 160 119.352 159.703 120.138 159.199C120.923 159.703 121.854 160 122.855 160H147.362C150.145 160 152.408 157.736 152.408 154.952V128.156C152.41 125.372 150.145 123.109 147.362 123.109ZM72.6123 123.109H62.5842V117.412C62.5842 117.198 62.7588 117.025 62.9724 117.025H87.4793C87.6929 117.025 87.8662 117.198 87.8662 117.412V123.109H82.5549C81.2683 123.109 80.2246 124.152 80.2246 125.438C80.2246 126.726 81.2683 127.769 82.5549 127.769H87.8662V133.853H62.5842V127.769H72.6123C73.9002 127.769 74.9426 126.726 74.9426 125.438C74.9426 124.152 73.9002 123.109 72.6123 123.109ZM92.5256 117.412V117.025H117.808V123.108H92.5256V117.412ZM117.808 112.365H92.5256V106.282H117.808V112.365ZM92.5256 127.769H117.808V133.853H92.5256V127.769ZM117.808 101.621H92.5256V95.9253C92.5256 95.7104 92.7002 95.5371 92.9138 95.5371H117.419C117.633 95.5371 117.808 95.7104 117.808 95.9253V101.621ZM62.5842 138.512H87.8662V144.596H62.5842V138.512ZM92.5256 138.512H117.808V144.596H92.5256V138.512ZM122.468 138.512H147.749V144.596H122.468V138.512ZM147.749 128.156V133.853H122.468V128.156C122.468 127.942 122.642 127.769 122.855 127.769H147.362C147.576 127.769 147.749 127.942 147.749 128.156ZM122.855 123.109C122.725 123.109 122.596 123.119 122.468 123.129V107.449L140.841 119.078C139.911 120.453 138.929 121.797 137.904 123.109H122.855ZM6.99463 82.5806C6.9458 81.8176 6.91406 81.0571 6.88965 80.2942H58.1897L8.04687 91.1169C7.53296 88.3154 7.17773 85.4663 6.99463 82.5806ZM9.03198 95.6714L68.5962 82.8149L17.8638 116.531C13.894 110.126 10.8911 103.097 9.03198 95.6714ZM17.0154 40.7019L72.2034 75.6335H6.88965C6.93115 74.2676 7.01172 72.9028 7.13012 71.5405C8.08105 60.6421 11.4453 50.1221 17.0154 40.7019ZM20.4431 120.413L80.2026 80.697L89.4397 86.543C89.8267 86.7883 90.2576 86.9043 90.6836 86.9043C91.4563 86.9043 92.2107 86.521 92.655 85.8203C93.3435 84.7327 93.02 83.2935 91.9324 82.6062L82.4829 76.6248V4.70093C121.827 5.93628 153.456 38.324 153.456 77.9639C153.456 91.0596 149.908 103.936 143.329 115.138L122.468 101.934V95.9253C122.468 93.1409 120.204 90.8777 117.421 90.8777H92.9138C90.1306 90.8777 87.8662 93.1421 87.8662 95.9253V112.384C87.738 112.374 87.6099 112.365 87.4793 112.365H62.9724C60.1892 112.365 57.9248 114.629 57.9248 117.412V147.833C42.4719 142.924 29.4641 133.107 20.4431 120.413ZM87.4793 155.339H62.9724C62.7588 155.339 62.5842 155.166 62.5842 154.952V149.257H87.8662V154.952C87.8662 155.166 87.6917 155.339 87.4793 155.339ZM117.419 155.339H92.9138C92.7002 155.339 92.5256 155.166 92.5256 154.952V149.257H117.808V154.952C117.808 155.166 117.634 155.339 117.419 155.339ZM147.749 154.952C147.749 155.166 147.576 155.341 147.362 155.341H122.855C122.642 155.341 122.468 155.166 122.468 154.952V149.257H147.749V154.952Z" fill="black"/>
</g>
<defs>
<clipPath id="clip0">
<rect width="160" height="160" fill="white"/>
</clipPath>
</defs>
</svg>
