<svg width="383" height="464" viewBox="0 0 383 464" fill="none" xmlns="http://www.w3.org/2000/svg">
<g clip-path="url(#clip0)">
<path d="M338.587 116.26C374.505 165.546 363.036 239.427 337.841 299.723C312.751 359.939 274.044 406.527 223.328 426.536C172.722 446.541 110.212 439.937 62.3947 415.723C14.4672 391.5 -18.7727 349.693 -21.451 309.867C-24.2393 270.164 3.6391 232.536 34.9467 184.206C66.2544 135.876 101.206 76.826 160.287 59.6003C219.469 42.3746 302.669 67.0797 338.587 116.26Z" fill="#F2F2F2"/>
<path fill-rule="evenodd" clip-rule="evenodd" d="M144.916 117.638L143.481 111.171C143.075 109.362 141.883 107.771 140.165 106.747C138.447 105.723 136.344 105.348 134.317 105.706L105.463 110.829C103.437 111.191 101.655 112.255 100.507 113.789C99.3592 115.322 98.9399 117.2 99.3411 119.009L120.385 213.3C120.585 214.196 120.98 215.048 121.548 215.808C122.117 216.567 122.848 217.219 123.699 217.727C124.55 218.234 125.504 218.587 126.508 218.765C127.512 218.943 128.545 218.943 129.549 218.764L148.565 215.383C151.085 214.807 154.4 213.936 154.4 213.936L144.916 117.638Z" fill="#6BD5E1"/>
<path fill-rule="evenodd" clip-rule="evenodd" d="M222.639 416.871L224.959 423.368L244.324 419.398L242.684 411.624L222.639 416.871Z" fill="#E49D75"/>
<path fill-rule="evenodd" clip-rule="evenodd" d="M102.096 360.327L94.9934 363.354L104.588 378.594L112.929 373.745L102.096 360.327Z" fill="#E49D75"/>
<path fill-rule="evenodd" clip-rule="evenodd" d="M146.03 200.723C146.03 200.723 165.491 292.12 171.111 304.462C163.654 309.866 101.713 360.442 101.713 360.442L112.235 374.214L201.911 328.386L183.474 191.412L146.03 200.723Z" fill="#56CAD8"/>
<path fill-rule="evenodd" clip-rule="evenodd" d="M158.632 204.173C163.205 214.363 222.587 417.012 222.587 417.012L243.368 412.119L225.098 189.09C225.098 189.09 154.065 193.982 158.632 204.173Z" fill="#6BD5E1"/>
<path fill-rule="evenodd" clip-rule="evenodd" d="M169.216 99.7638C215.102 90.8371 231.363 178.895 228.254 189.867C225.146 200.839 152.597 211.639 147.278 204.997C141.96 198.354 120.696 109.203 169.216 99.7638Z" fill="#FFD98E"/>
<path fill-rule="evenodd" clip-rule="evenodd" d="M156.849 77.7183C159.871 84.6726 161.014 95.1062 161.751 105.177C165.807 108.328 177.806 107.277 179.485 105.416C178.141 102.24 178.476 92.4082 179.217 89.3515C179.959 86.2948 155.16 73.8377 156.849 77.7183Z" fill="#D18C65"/>
<path fill-rule="evenodd" clip-rule="evenodd" d="M231.124 92.1435L245.668 42.2166L252.173 43.7236L237.629 93.6718L231.124 92.1435Z" fill="#DFDFDF"/>
<path d="M235.079 87.439L238.805 88.2928" stroke="white" stroke-width="1.01" stroke-linecap="square" stroke-linejoin="round"/>
<path d="M236.992 80.8731L240.718 81.7269" stroke="white" stroke-width="1.01" stroke-linecap="square" stroke-linejoin="round"/>
<path d="M238.901 74.3073L242.631 75.1611" stroke="white" stroke-width="1.01" stroke-linecap="square" stroke-linejoin="round"/>
<path d="M240.814 67.7414L244.544 68.5953" stroke="white" stroke-width="1.01" stroke-linecap="square" stroke-linejoin="round"/>
<path d="M242.727 61.1756L246.453 62.0294" stroke="white" stroke-width="1.01" stroke-linecap="square" stroke-linejoin="round"/>
<path d="M244.64 54.6098L248.366 55.4636" stroke="white" stroke-width="1.01" stroke-linecap="square" stroke-linejoin="round"/>
<path d="M246.553 48.0439L250.279 48.8977" stroke="white" stroke-width="1.01" stroke-linecap="square" stroke-linejoin="round"/>
<path fill-rule="evenodd" clip-rule="evenodd" d="M252.852 73.2101C256.735 71.9892 259.375 75.1952 260.437 78.047C262.14 82.632 261.011 86.8157 259.375 87.439C258.466 87.7998 257.447 87.876 256.484 87.6551C255.52 87.4343 254.668 86.9294 254.067 86.2223C253.952 87.4731 253.751 88.5148 251.197 89.5052C247.371 90.9866 243.143 86.5168 242.143 84.2115C240.814 81.1805 241.44 76.6553 244.296 75.5624C246.649 74.6616 248.256 75.3105 248.997 76.1387C250.044 74.6659 251.221 73.7224 252.852 73.2101Z" fill="#56CAD8"/>
<path fill-rule="evenodd" clip-rule="evenodd" d="M250.379 63.9889C255.999 64.4158 251.776 72.352 249.126 74.0426C247.251 72.6295 244.941 63.5748 250.379 63.9889Z" fill="#FD8369"/>
<path fill-rule="evenodd" clip-rule="evenodd" d="M148.99 157.661C148.589 165.204 146.336 185.431 163.296 188.932C179.428 192.266 232.454 160.18 241.976 158.267C251.498 156.355 251.656 159.377 258.567 157.063C272.193 152.495 269.567 147.484 268.491 142.339C262.723 144.013 180.705 161.977 177.935 162.626C176.754 160.284 176.114 157.753 176.056 155.185C176.056 155.185 149.392 150.118 148.99 157.661Z" fill="#E49D75"/>
<path fill-rule="evenodd" clip-rule="evenodd" d="M159.249 115.961C182.091 114.97 183.737 156.807 180.379 159.552C177.022 162.297 145.274 164.299 142.883 161.179C140.491 158.058 139.1 116.836 159.249 115.961Z" fill="#FFE4AD"/>
<path fill-rule="evenodd" clip-rule="evenodd" d="M208.11 140.478C202.705 141.69 199.247 145.942 200.385 149.972C201.524 154.002 206.823 156.303 212.232 155.07L271.146 141.836L267.033 127.244L208.11 140.478Z" fill="#FD8369"/>
<path fill-rule="evenodd" clip-rule="evenodd" d="M207.287 130.01L290.697 111.188L293.567 121.34L210.156 140.158L207.287 130.01Z" fill="#DFDFDF"/>
<path fill-rule="evenodd" clip-rule="evenodd" d="M205.158 112.622L265.531 98.9996L270.342 115.986L209.965 129.609L205.158 112.622Z" fill="#56CAD8"/>
<path fill-rule="evenodd" clip-rule="evenodd" d="M184.765 106.475L268.19 87.6524L271.06 97.8171L187.649 116.635L184.765 106.475Z" fill="#FD8369"/>
<path d="M209.449 141.964L212.438 152.722" stroke="#6BD5E1" stroke-width="1.36" stroke-linecap="square" stroke-linejoin="round"/>
<path fill-rule="evenodd" clip-rule="evenodd" d="M211.625 117.63L228.661 113.788L230.019 118.582L212.983 122.424L211.625 117.63Z" fill="#DFDFDF"/>
<path d="M190.758 110.445L225.146 102.586" stroke="#FFD98E" stroke-width="2.42" stroke-linecap="round" stroke-linejoin="round"/>
<path fill-rule="evenodd" clip-rule="evenodd" d="M79.4929 370.317L106.821 415.479L114.526 411.85L105.941 378.552L95.0559 363.217L79.4929 370.317Z" fill="#2B2B2B"/>
<path fill-rule="evenodd" clip-rule="evenodd" d="M227.365 438.336L283.982 429.371L282.548 421.686L244.42 418.489L224.701 422.899L227.365 438.336Z" fill="#2B2B2B"/>
<path fill-rule="evenodd" clip-rule="evenodd" d="M190.275 45.9733C188.118 35.4884 176.572 30.9803 166.371 32.9483C148.632 36.3636 140.066 44.9018 129.472 46.4941C113.402 48.8933 98.4371 43.5058 81.5685 47.476C58.7071 52.8551 55.3066 67.4254 58.6114 80.4973C64.1163 102.12 84.9546 106.966 100.58 104.925C123.345 101.937 123.733 87.6096 138.009 85.4196C144.681 84.3993 149.009 85.7056 155.796 84.5658C162.583 83.4259 173.597 75.5708 176.84 72.5782C180.083 69.5856 191.557 52.1976 190.275 45.9733Z" fill="black"/>
<path fill-rule="evenodd" clip-rule="evenodd" d="M154.07 69.2484C151.678 56.5949 158.303 45.3715 168.868 44.1804C179.433 42.9893 189.945 52.2831 192.336 64.9452C194.728 77.6073 188.104 88.8222 177.539 90.0132C166.974 91.2043 156.461 81.902 154.07 69.2484Z" fill="#E49D75"/>
<path fill-rule="evenodd" clip-rule="evenodd" d="M185.927 49.1496C187.673 57.4487 160.608 70.8152 152.095 72.4929C143.581 74.1707 140.339 58.4989 140.339 58.4989C140.339 58.4989 169.135 28.3891 185.927 49.1496Z" fill="black"/>
<path fill-rule="evenodd" clip-rule="evenodd" d="M151.248 75.8655C151.247 74.9676 151.545 74.0896 152.103 73.3427C152.661 72.5958 153.455 72.0135 154.384 71.6695C155.313 71.3255 156.336 71.2352 157.323 71.4102C158.309 71.5852 159.216 72.0174 159.927 72.6524C160.638 73.2873 161.123 74.0963 161.319 74.9769C161.515 75.8576 161.414 76.7704 161.028 77.5998C160.643 78.4292 159.99 79.1379 159.154 79.6362C158.317 80.1345 157.333 80.4001 156.327 80.3992C154.98 80.3992 153.688 79.9216 152.736 79.0713C151.783 78.2211 151.248 77.0679 151.248 75.8655Z" fill="#E49D75"/>
<path d="M141.926 113.741C144.38 111.917 147.285 110.641 150.401 110.018" stroke="#6BD5E1" stroke-width="4" stroke-linecap="round" stroke-linejoin="round"/>
<path d="M150.42 110.018C165.409 107.081 181.446 120.477 186.233 139.944C188.146 147.659 187.979 155.168 186.171 161.606" stroke="#6BD5E1" stroke-width="4" stroke-linecap="round" stroke-linejoin="round"/>
</g>
<defs>
<clipPath id="clip0">
<rect width="383" height="464" fill="white"/>
</clipPath>
</defs>
</svg>
