<svg width="128" height="159" viewBox="0 0 128 159" fill="none" xmlns="http://www.w3.org/2000/svg">
<path d="M1.76168 44.2848C1.77379 41.5241 4.02105 39.2965 6.78173 39.3086L103.519 39.7332C106.281 39.7454 108.511 41.9949 108.499 44.757L108.02 153.885C108.008 156.646 105.76 158.874 103 158.861L6.26252 158.437C3.50041 158.425 1.27056 156.175 1.28269 153.413L1.76168 44.2848Z" fill="#717171"/>
<rect x="14.7782" y="51.5123" width="81" height="99" rx="5" transform="rotate(0.251484 14.7782 51.5123)" fill="white"/>
<path d="M35.4722 35.5861L78.2572 35.246C75.7662 39.3616 76.166 41.6565 78.3305 45.7358L35.5454 46.0758C37.6568 42.4061 38.3658 40.2535 35.4722 35.5861Z" fill="#384A54"/>
<rect width="46.927" height="5.59466" rx="2.79733" transform="matrix(0.999983 0.00400119 -0.00496577 0.999997 33.2289 32.524)" fill="#2F3E46"/>
<rect width="46.927" height="5.59466" rx="2.79733" transform="matrix(0.999983 0.00400119 -0.00496577 0.999997 33.2289 32.524)" fill="#2F3E46"/>
<rect width="46.927" height="4.19599" rx="2.098" transform="matrix(0.999932 0.0103711 -0.0113356 0.99995 33.1697 44.9618)" fill="#2F3E46"/>
<rect width="46.927" height="4.19599" rx="2.098" transform="matrix(0.999932 0.0103711 -0.0113356 0.99995 33.1697 44.9618)" fill="#2F3E46"/>
<path d="M46.3361 32.5815C41.3454 17.2729 69.7316 14.4589 66.9396 32.6639L46.3361 32.5815Z" fill="#2F3E46" stroke="#2F3E46"/>
<ellipse rx="3.45052" ry="3.147" transform="matrix(0.999969 -0.00794692 0.00698222 0.999976 56.8136 28.0734)" fill="white"/>
<path d="M40.2784 79H42.0341V74.9091H44.4205C47.1193 74.9091 48.4545 73.2784 48.4545 71.1307C48.4545 68.9886 47.1307 67.3636 44.4261 67.3636H40.2784V79ZM42.0341 73.4205V68.8693H44.2386C45.9773 68.8693 46.6875 69.8125 46.6875 71.1307C46.6875 72.4489 45.9773 73.4205 44.2614 73.4205H42.0341ZM52.0753 67.3636H50.3764V79H52.0753V67.3636ZM56.9006 79.1932C58.3438 79.1932 59.1562 78.4602 59.4801 77.8068H59.5483V79H61.2074V73.2045C61.2074 70.6648 59.2074 70.1591 57.821 70.1591C56.2415 70.1591 54.7869 70.7955 54.2188 72.3864L55.8153 72.75C56.0653 72.1307 56.7017 71.5341 57.8438 71.5341C58.9403 71.5341 59.5028 72.108 59.5028 73.0966V73.1364C59.5028 73.7557 58.8665 73.7443 57.2983 73.9261C55.6449 74.1193 53.9517 74.5511 53.9517 76.5341C53.9517 78.25 55.2415 79.1932 56.9006 79.1932ZM57.2699 77.8295C56.3097 77.8295 55.6165 77.3977 55.6165 76.5568C55.6165 75.6477 56.4233 75.3239 57.4062 75.1932C57.9574 75.1193 59.2642 74.9716 59.5085 74.7273V75.8523C59.5085 76.8864 58.6847 77.8295 57.2699 77.8295ZM65.169 73.8182C65.169 72.4261 66.0213 71.6307 67.2031 71.6307C68.3565 71.6307 69.0554 72.3864 69.0554 73.6534V79H70.7543V73.4489C70.7543 71.2898 69.5668 70.1591 67.7827 70.1591C66.4702 70.1591 65.6122 70.767 65.2088 71.6932H65.1009V70.2727H63.4702V79H65.169V73.8182Z" fill="#BD0000"/>
<g clip-path="url(#clip0)">
<path d="M30 97.0765C30 95.4575 31.2089 94.1 32.6506 94.1H81.6043C82.9462 94.1 84 95.283 84 96.7904V119.457C84 121.076 82.7913 122.433 81.3495 122.433H32.3958C31.0535 122.433 30 121.25 30 119.743L30 97.0765Z" fill="#9CCC9D"/>
<path d="M77.051 96.9333H37.8623C37.598 96.9333 37.3812 97.1603 37.3201 97.4517C37.0679 98.654 36.1806 101.514 33.4713 101.297C33.1427 101.271 32.8272 101.556 32.8271 101.926L32.8241 113.572C32.824 113.873 33.0367 114.107 33.3041 114.127C36.6646 114.378 37.1288 117.273 37.1687 118.551C37.1788 118.876 37.4026 119.152 37.6936 119.152H77.003C77.2908 119.152 77.5363 118.884 77.571 118.562C77.7067 117.304 78.3059 114.481 80.9502 114.554C81.2702 114.563 81.568 114.282 81.568 113.923V101.963C81.568 101.616 81.2874 101.37 80.9775 101.399C78.2151 101.656 77.6666 98.7147 77.558 97.4721C77.5317 97.1716 77.3219 96.9333 77.051 96.9333Z" fill="#5DB88D"/>
<path d="M57.5047 115.067C60.9887 115.067 63.8131 111.895 63.8131 107.983C63.8131 104.071 60.9887 100.9 57.5047 100.9C54.0207 100.9 51.1963 104.071 51.1963 107.983C51.1963 111.895 54.0207 115.067 57.5047 115.067Z" fill="#9CCC9D"/>
<path d="M43.1215 111.1C44.5151 111.1 45.6449 109.831 45.6449 108.267C45.6449 106.702 44.5151 105.433 43.1215 105.433C41.7279 105.433 40.5981 106.702 40.5981 108.267C40.5981 109.831 41.7279 111.1 43.1215 111.1Z" fill="#9CCC9D"/>
<path d="M43.1215 111.1C44.5151 111.1 45.6449 109.831 45.6449 108.267C45.6449 106.702 44.5151 105.433 43.1215 105.433C41.7279 105.433 40.5981 106.702 40.5981 108.267C40.5981 109.831 41.7279 111.1 43.1215 111.1Z" fill="#9CCC9D"/>
<path d="M43.1215 111.1C44.5151 111.1 45.6449 109.831 45.6449 108.267C45.6449 106.702 44.5151 105.433 43.1215 105.433C41.7279 105.433 40.5981 106.702 40.5981 108.267C40.5981 109.831 41.7279 111.1 43.1215 111.1Z" fill="#9CCC9D"/>
<path d="M43.1215 111.1C44.5151 111.1 45.6449 109.831 45.6449 108.267C45.6449 106.702 44.5151 105.433 43.1215 105.433C41.7279 105.433 40.5981 106.702 40.5981 108.267C40.5981 109.831 41.7279 111.1 43.1215 111.1Z" fill="#9CCC9D"/>
<path d="M71.8879 111.1C73.2815 111.1 74.4112 109.831 74.4112 108.267C74.4112 106.702 73.2815 105.433 71.8879 105.433C70.4943 105.433 69.3645 106.702 69.3645 108.267C69.3645 109.831 70.4943 111.1 71.8879 111.1Z" fill="#9CCC9D"/>
<path d="M71.8879 111.1C73.2815 111.1 74.4112 109.831 74.4112 108.267C74.4112 106.702 73.2815 105.433 71.8879 105.433C70.4943 105.433 69.3645 106.702 69.3645 108.267C69.3645 109.831 70.4943 111.1 71.8879 111.1Z" fill="#9CCC9D"/>
<path d="M71.8879 111.1C73.2815 111.1 74.4112 109.831 74.4112 108.267C74.4112 106.702 73.2815 105.433 71.8879 105.433C70.4943 105.433 69.3645 106.702 69.3645 108.267C69.3645 109.831 70.4943 111.1 71.8879 111.1Z" fill="#9CCC9D"/>
<path d="M71.8879 111.1C73.2815 111.1 74.4112 109.831 74.4112 108.267C74.4112 106.702 73.2815 105.433 71.8879 105.433C70.4943 105.433 69.3645 106.702 69.3645 108.267C69.3645 109.831 70.4943 111.1 71.8879 111.1Z" fill="#9CCC9D"/>
</g>
<defs>
<clipPath id="clip0">
<rect width="54" height="34" fill="white" transform="translate(30 89)"/>
</clipPath>
</defs>
</svg>
